<svg width="32" height="32" viewBox="0 0 32 32" fill="none" xmlns="http://www.w3.org/2000/svg">
<path d="M0 4C0 1.79086 1.79086 0 4 0H28C30.2091 0 32 1.79086 32 4V28C32 30.2091 30.2091 32 28 32H4C1.79086 32 0 30.2091 0 28V4Z" fill="#09090B"/>
<mask id="mask0_73_7853" style="mask-type:alpha" maskUnits="userSpaceOnUse" x="4" y="4" width="24" height="24">
<circle cx="16" cy="16" r="12" transform="rotate(90 16 16)" fill="#FAFAFA"/>
</mask>
<g mask="url(#mask0_73_7853)">
<circle cx="16" cy="16" r="11" transform="rotate(90 16 16)" fill="url(#paint0_linear_73_7853)" stroke="#FAFAFA" stroke-width="2"/>
<path d="M4 13.0207C16 6.02073 16 20.0207 28 13.0207" stroke="#FAFAFA" stroke-width="1.5"/>
<path d="M4 21C16 14 16 28 28 21" stroke="#FAFAFA" stroke-width="1.5"/>
<ellipse cx="20.5" cy="18.5" rx="2.5" ry="1.5" fill="#FAFAFA"/>
</g>
<defs>
<linearGradient id="paint0_linear_73_7853" x1="11" y1="22" x2="25.5" y2="9" gradientUnits="userSpaceOnUse">
<stop stop-color="white" stop-opacity="0"/>
<stop offset="1" stop-color="#FAFAFA" stop-opacity="0.6"/>
</linearGradient>
</defs>
</svg>
